<svg xmlns="http://www.w3.org/2000/svg" viewBox="80.5 142 217.6 217.6" fill="#989898"><path d="M292.6 302.4c3.6 3.6 5.4 7.9 5.4 12.9 0 5.1-1.8 9.5-5.4 13.1l-25.7 25.7c-3.6 3.6-8 5.4-13.1 5.4-4.9 0-9.2-1.8-12.8-5.4l-51.7-51.7-51.7 51.7c-3.6 3.6-7.9 5.4-12.8 5.4-5.1 0-9.5-1.8-13.1-5.4L86 328.4c-3.6-3.6-5.4-8-5.4-13.1 0-4.9 1.8-9.2 5.4-12.9l51.7-51.7L86 199c-3.6-3.6-5.4-7.9-5.4-12.8 0-5.1 1.8-9.5 5.4-13.1l25.7-25.7c3.6-3.6 8-5.4 13.1-5.4 4.9 0 9.2 1.8 12.8 5.4l51.7 51.7 51.7-51.7c3.6-3.6 7.9-5.4 12.8-5.4 5.1 0 9.5 1.8 13.1 5.4l25.7 25.7c3.6 3.6 5.4 8 5.4 13.1 0 4.9-1.8 9.2-5.4 12.8l-51.7 51.7 51.7 51.7z"/></svg>