<svg xmlns="http://www.w3.org/2000/svg" viewBox="0 0 125 52.703"><g fill="#FFF"><path d="M57.149 22.637h-1.033V7.721h-5.578v14.916h-1.075V6.687h7.686zM59.795 17.534v-5.766c0-3.655.785-5.246 4.628-5.246s4.629 1.591 4.629 5.268v5.725c0 3.596-.848 5.268-4.629 5.268-3.781-.001-4.628-1.673-4.628-5.249m1.032-5.701v5.641c0 2.56.104 4.359 3.595 4.359s3.594-1.736 3.594-4.359v-5.641c0-2.707-.103-4.361-3.594-4.361s-3.595 1.591-3.595 4.361M78.68 22.637l-5.083-7.728h-.826v7.728h-1.095V6.687h1.095v7.129h.786l4.937-7.129h1.302l-5.311 7.583 5.539 8.367zM80.377 17.534v-5.766c0-3.655.784-5.246 4.628-5.246 3.842 0 4.627 1.591 4.627 5.268v5.725c0 3.596-.847 5.268-4.627 5.268-3.782-.001-4.628-1.673-4.628-5.249m1.032-5.701v5.641c0 2.56.104 4.359 3.596 4.359s3.594-1.736 3.594-4.359v-5.641c0-2.707-.102-4.361-3.594-4.361-3.492-.001-3.596 1.591-3.596 4.361M93.456 17.038v5.6h-1.095V6.687h3.844c2.602 0 3.821.827 3.821 4.462v1.385c0 3.471-1.219 4.504-3.821 4.504h-2.749zm2.749-.992c2.231 0 2.788-.95 2.788-3.491v-1.303c0-2.539-.412-3.572-2.788-3.572h-2.749v8.366h2.749zM103.271 9.229l.145 4.193v9.215h-1.074V6.687h1.136l3.429 10.042 3.452-10.042h1.136v15.95h-1.056v-9.215l.126-4.193-3.472 9.772h-.351zM114.346 6.686h1.096v7.996l-.186 5.682h.041l5.661-13.678h1.096v15.93h-1.096v-8.531l.144-5h-.041l-5.516 13.531h-1.199zM33.714 22.069c-.621 0-1.107.094-1.129.097l-.419.083-.043.426c-.156 1.541-.733 3.256-1.314 3.256-1.509 0-1.878-3.041-1.88-3.068l-.064-.598-.592.085c-.025.003-2.625.374-5.745.374-3.117 0-5.721-.371-5.748-.374l-.589-.085-.064.598c-.003.027-.373 3.068-1.88 3.068-.582 0-1.16-1.715-1.315-3.256l-.042-.426-.419-.083c-.022-.003-.509-.097-1.131-.097-1.538 0-2.578.574-2.925 1.613-.875 2.627.509 5.85 2.962 6.9 1.419.609 6.143 1.947 10.978 1.954 4.724 0 9.785-1.294 11.323-1.954 2.453-1.051 3.838-4.273 2.962-6.9-.348-1.039-1.387-1.613-2.926-1.613m-.49 7.453c-1.113.478-5.948 1.861-10.914 1.861-4.705-.008-9.328-1.367-10.481-1.861-1.933-.826-3.021-3.385-2.324-5.475.229-.684 1.124-.826 1.833-.826.188 0 .358.01.502.022.173 1.199.744 3.842 2.405 3.842 1.997 0 2.708-2.387 2.934-3.523.945.113 2.981.312 5.348.312 2.366-.001 4.4-.199 5.349-.312.225 1.137.935 3.523 2.933 3.523 1.662 0 2.231-2.643 2.406-3.842.688-.062 2.044-.057 2.333.805.695 2.089-.39 4.648-2.324 5.474"/><path d="M40.021 22.977C38.134 4.346 36.298 4.022 35.514 3.883c-1.921-.342-2.852 1.328-3.656 2.771-.507.908-1.031 1.846-1.684 2.043-.473.141-3.252.285-7.649.285s-7.178-.144-7.65-.285c-.652-.197-1.175-1.135-1.684-2.043-.805-1.443-1.744-3.115-3.656-2.771-.781.139-2.617.463-4.503 19.094-.919 9.076-1.45 18.754-1.45 20.168 0 3.138 1.492 4.99 4.692 5.832 1.782.47 5.439.711 10.872.711 1.281 0 2.456-.018 3.369-.033.934.016 2.11.033 3.391.033h.001c5.429 0 9.088-.241 10.871-.711 3.2-.842 4.693-2.694 4.693-5.832 0-1.414-.531-11.094-1.45-20.168m-3.537 24.887c-1.663.439-5.32.67-10.578.67-1.274 0-2.442-.014-3.391-.031-.929.018-2.095.031-3.369.031-5.257 0-8.915-.23-10.579-.67-2.687-.708-3.833-2.119-3.833-4.719 0-5.184 2.396-37.352 5.004-38.127 1.111-.195 1.752.949 2.448 2.197.62 1.108 1.259 2.256 2.36 2.586 1.058.316 6.833.334 7.979.334s6.92-.018 7.979-.334c1.1-.33 1.74-1.477 2.36-2.586.695-1.246 1.354-2.385 2.445-2.197 2.609.775 5.006 32.943 5.006 38.127.002 2.6-1.144 4.011-3.831 4.719M51.163 40.479c0 1.871.705 3.117 2.358 3.117 1.652 0 2.546-.733 2.546-2.873 0-2.303-1.219-3.033-2.736-3.033h-1.978v-3.336h1.978c1.95 0 2.655-1.242 2.655-2.736 0-1.381-.759-2.328-2.249-2.328-1.328 0-2.331.734-2.331 2.629h-3.495c0-4.118 1.844-5.989 5.854-5.989 3.168 0 5.769 1.843 5.769 5.773 0 1.327-.541 3.412-2.302 4.226 2.087.758 2.602 2.438 2.602 4.768 0 3.955-2.114 6.477-6.286 6.477-4.28 0-5.988-2.574-5.988-6.693h3.603zM62.62 26.174h6.205c3.766 0 6.15 2.277 6.15 5.527 0 1.271-.245 2.547-1.897 3.658 2.168.459 3.822 2.33 3.822 5.201 0 4.689-2.358 6.475-7.397 6.475H62.62V26.174zm3.713 17.475h3.224c2.898 0 3.333-1.028 3.333-3.007 0-2.059-.679-3.005-3.387-3.005h-3.17v6.012zm.027-14.278v4.823h2.492c1.544 0 2.276-1.11 2.276-2.44 0-1.055-.459-2.384-2.302-2.384H66.36zM91.77 26.174v3.25h-8.262v5.366h7.042v3.359h-7.042v5.5h8.64v3.414h-12.38V26.174zM100.301 26.174c5.039 0 7.397 1.815 7.397 6.233v1.924c0 4.307-2.439 6.31-7.397 6.31h-1.435v6.395h-3.821V26.174h5.256zm0 10.864c2.709 0 3.603-.918 3.603-2.898v-1.543c0-1.978-.65-3.008-3.549-3.008H98.84v7.449h1.461zM108.425 47.036l4.58-7.939c-2.52-.811-3.604-2.49-3.604-5.578v-1.086c0-4.414 2.358-6.258 7.396-6.258h5.258v20.861h-3.74v-7.342h-1.381l-4.145 7.342h-4.364zm9.916-10.782v-6.639h-1.597c-2.899 0-3.414 1.029-3.414 3.009v.702c0 1.977.758 2.928 3.466 2.928h1.545z"/><path d="M33.451 30.052c-1.287.554-6.243 1.916-11.142 1.907-4.755-.007-9.458-1.373-10.707-1.907-2.284-.979-3.399-3.923-2.643-6.188.562-1.688 3.398-1.133 3.398-1.133s.377 3.775 1.887 3.775c2.077 0 2.454-3.586 2.454-3.586s2.628.375 5.828.377c3.199-.002 5.828-.377 5.828-.377s.377 3.586 2.454 3.586c1.509 0 1.888-3.775 1.888-3.775s2.833-.556 3.396 1.133c.755 2.265-.359 5.21-2.641 6.188M14.07 18.391a1.968 1.968 0 0 1-1.966-1.965 1.97 1.97 0 0 1 1.966-1.965c1.083 0 1.965.883 1.965 1.965a1.967 1.967 0 0 1-1.965 1.965m0-2.947a.983.983 0 1 0 0 1.965.983.983 0 0 0 0-1.965M30.202 18.391a1.969 1.969 0 0 1-1.967-1.965c0-1.082.883-1.964 1.967-1.964 1.082 0 1.963.882 1.963 1.964a1.966 1.966 0 0 1-1.963 1.965m0-2.949a.984.984 0 1 0 .001 1.967.984.984 0 0 0-.001-1.967"/></g></svg>