<svg xmlns="http://www.w3.org/2000/svg" xmlns:xlink="http://www.w3.org/1999/xlink" viewBox="0 0 140 140"><circle opacity=".2" fill="#FFF" cx="70" cy="70" r="70"/><defs><circle id="a" cx="70" cy="70" r="70"/></defs><clipPath id="b"><use xlink:href="#a" overflow="visible"/></clipPath><g clip-path="url(#b)"><path fill="#E0E1E0" d="M180.123 128.426c0 1.83-28.222 2.8-73.828 3.314-97.652 1.1-75.786-4.9-75.786-6.731 0-1.83 30.358.103 75.786.103 45.428.001 73.828 1.484 73.828 3.314z"/><path fill="#4ABA7D" d="M93.251 33.916c0 5.082-2.312 9.198-5.163 9.198-1.034 0-3.775-.6-3.775-.6s-1.388-5.357-1.388-8.596c0-3.037 1.793-8.644 1.793-8.644s2.223-.552 3.371-.552c2.851 0 5.162 4.112 5.162 9.194z"/><ellipse fill="#5FBF84" cx="84.717" cy="33.908" rx="5.163" ry="8.634"/><ellipse fill="#4ABA7D" cx="84.717" cy="33.867" rx="2.586" ry="4.608"/><g><path fill="#AB6EAE" d="M39.174 30.043s1.218-14.435 5.144-15.036c2.643-.405 6.331 8.621 6.331 8.621s6.331-1.498 12.663-1.103c6.331.396 15.433 1.103 15.433 1.103s4.359-9.278 7.067-8.621c3.736.906 3.22 15.036 3.22 15.036s1.583 16.224 3.562 22.16c1.978 5.936 13.454 51.655 7.123 63.922C93.386 128.392 85.813 129 85.813 129H48.275s-9.342-.608-13.85-5.357c-5.048-5.318-6.727-18.705-5.54-26.222 1.187-7.519 8.706-50.506 8.706-50.506l1.583-16.872z"/><path fill="#AB6EAE" d="M65.144 66.448s15.184 1.202 15.975 28.11c.791 26.909-.792 34.442-.792 34.442H48.275s-1.187-12.677 0-27.714c1.187-15.037 4.851-35.233 16.869-34.838z"/><path fill="#AB6EAE" d="M78.292 69.09s-6.103-.596-9.398 6.773c-2.423 5.419-4.753 13.868-.7 15.443 4.054 1.573 4.972-4.338 4.972-4.338s2.184-7.607 9.307-5.976"/><path fill="#9C65A3" d="M84.687 80.326c-7.123-1.631-11.099 6.642-11.099 6.642s-.884 4.132-4.301 3.866c-1.135-.088-2.352-.827-2.651-2.003.304.341.679.612 1.138.79 4.054 1.573 4.972-4.338 4.972-4.338s2.184-7.607 9.307-5.976l2.634 1.019z"/><path fill="#AB6EAE" d="M37.987 56.556s-5.935 1.187-7.122-5.935c-1.187-7.123 2.163-13.101-2.18-13.454-2.59-.211-6.526 8.706-6.13 14.246.396 5.539 3.957 14.246 15.432 16.62"/><path fill="#9C65A3" d="M28.441 37.588c4.468.39 1.096 6.986 2.318 14.844 1.177 7.572 6.956 6.631 7.377 6.553l-1.872-2.838s-4.138 1.175-5.325-5.947c-1.187-7.123 2.126-13.101-2.217-13.454-2.02-.165-4.877 5.222-5.841 10.23 1.237-4.904 3.719-9.549 5.56-9.388z"/><path fill="#B681B9" d="M51.735 24.701s4.922-1.18 14.256.983 12.753-2.056 12.753-2.056-22.094-2.269-27.009 1.073z"/><g><ellipse transform="rotate(172.839 52.545 35.02)" fill="#1A1A1A" cx="52.546" cy="35.019" rx="1.687" ry="1.968"/><ellipse transform="rotate(-172.054 77.956 35.014)" fill="#1A1A1A" cx="77.957" cy="35.013" rx="1.66" ry="1.968"/><path fill="#9C65A3" d="M85.264 44.769s-11.517 2.789-19.79 2.616c-8.273-.173-20.318-2.858-20.318-2.858s7.085 4.753 20.553 4.753c12.692-.001 19.555-4.511 19.555-4.511z"/><path fill="#BE88BC" d="M80.911 45.694s-9.69.318-15.701.236c-6.011-.082-15.545-.497-15.545-.497s6.023 1.951 15.809 1.951c9.223 0 15.437-1.69 15.437-1.69z"/><path fill="#9C65A3" d="M82.377 45.938s-.186 5.575-1.562 5.936c-1.377.362-2.76-4.923-2.76-4.923l4.322-1.013z"/><path fill="#FFF" d="M81.34 45.938s-.186 4.795-1.562 5.107c-1.377.311-2.76-4.235-2.76-4.235l4.322-.872z"/><g><path fill="#9C65A3" d="M49.124 45.938s.174 4.795 1.459 5.107c1.285.311 2.576-4.235 2.576-4.235l-4.035-.872z"/><path fill="#FFF" d="M48.087 45.931s.174 4.802 1.458 5.114c1.285.311 2.576-4.235 2.576-4.235l-4.034-.879z"/></g></g><g><g fill="#FFF"><circle opacity=".1" cx="104.227" cy="101.974" r="54.408"/><circle opacity=".4" cx="104.228" cy="101.974" r="37.433"/></g><path fill="#DDC976" d="M144 129H31.395s.904-3.572 1.951-3.687C64.103 121.944 144 122.469 144 122.469V129z"/><path fill="#FFF198" d="M94.173 78h71.625c5.476 0 2.428 4.806 2.428 4.806L145.153 129H64.68l23.398-46.698S89.257 78 94.173 78z"/><path fill="#FFF" d="M125.305 104.159c.571-6.137-.013-6.244-.262-6.29-.61-.112-1.024.438-1.382.913-.225.299-.458.608-.686.673-.165.047-1.09.094-2.538.094-1.448 0-2.355-.047-2.501-.094-.202-.065-.314-.374-.424-.673-.173-.475-.374-1.026-1.027-.913-.267.046-.892.153-2.707 6.29-.884 2.99-1.678 6.178-1.769 6.644-.201 1.034.172 1.644 1.173 1.921.557.155 1.746.234 3.536.234.422 0 .81-.006 1.112-.011.307.005.693.011 1.115.011 1.788 0 3.009-.079 3.627-.234 1.108-.277 1.718-.887 1.919-1.921.091-.466.536-3.655.814-6.644"/><path fill="#DDC976" d="M79 125h56v4H79z"/></g><path fill="#AB6EAE" d="M89.048 27.236s-.539-9.819-2.683-11.382c-.85-.619-2.829 7.948-2.829 7.948l5.512 3.434zM46.716 24.802s-.247-5.527-1.148-6.904c-.609-.931-1.176-4.551-2.752-1.699-1.461 2.644-3.009 11.109-3.009 11.109l6.909-2.506zM76.963 145.238c-.927 0-1.858-.32-2.614-.973-3.632-3.137-10.334-2.214-18.096-1.148-9.895 1.361-21.11 2.902-30.719-3.529-5.201-3.481-6.859-12.249-4.067-18.169 2.823-5.985 9.026-10.19 14.798-8.46 2.117.635 3.391 6.437 2.756 8.554a4.003 4.003 0 0 1-4.984 2.684c-2.307-.694-4.361 1.115-5.291 3.088-.519 1.102-1.439 3.858 1.241 5.651 7.081 4.739 16.28 3.474 25.176 2.251 8.873-1.22 18.048-2.481 24.418 3.019a4.004 4.004 0 0 1-2.618 7.032z"/></g><g><path fill="#9C65A3" d="M46.905 33.055c0 5.082-2.312 11.323-5.163 11.323-1.034 0-3.755-1.264-3.755-1.264s-1.408-4.693-1.408-7.932c0-3.037 1.793-8.644 1.793-8.644s2.223-.552 3.371-.552c2.851-.001 5.162 1.987 5.162 7.069z"/><path fill="#4ABA7D" d="M44.799 33.916c0 5.082-2.312 9.198-5.163 9.198-1.034 0-3.775-.6-3.775-.6s-1.388-5.357-1.388-8.596c0-3.037 1.793-8.644 1.793-8.644s2.223-.552 3.371-.552c2.85 0 5.162 4.112 5.162 9.194z"/><ellipse fill="#5FBF84" cx="36.265" cy="33.908" rx="5.163" ry="8.634"/><ellipse fill="#4ABA7D" cx="36.265" cy="33.867" rx="2.586" ry="4.608"/><path fill="#9C65A3" d="M63.001 53.84c-16.645 0-21.646-10.21-21.9-10.726-.257-.522.468.256.99 0 .521-.258.913-1.459 1.171-.939.238.48 4.571 9.825 20.222 8.825h.016c.574 0 1.044.826 1.053 1.402.009.582-.456 1.243-1.038 1.251-.171.003-.345.187-.514.187z"/><path fill="#9C65A3" d="M66.751 52.943c0 1.122-1.581 2.031-3.531 2.031s-1.424-.909-1.424-2.031-.526-2.031 1.424-2.031 3.531.909 3.531 2.031z"/><path fill="#4ABA7D" d="M62.579 55.525c-16.645 0-22.735-12.002-22.989-12.518a1.053 1.053 0 0 1 .481-1.41c.521-.258 1.152-.249 1.409.272.239.48 5.931 12.131 21.583 11.131h.016c.574 0 1.044.668 1.053 1.245.009.582-.456 1.164-1.038 1.173-.172.002-.345.107-.515.107z"/><path fill="#5FBF84" d="M66.329 54.628c0 1.122-1.581 2.031-3.531 2.031-1.95 0-1.424-.909-1.424-2.031s-.526-2.031 1.424-2.031 3.531.91 3.531 2.031z"/></g></g></svg>