<svg xmlns="http://www.w3.org/2000/svg" xmlns:xlink="http://www.w3.org/1999/xlink" viewBox="0 0 140 140"><circle opacity=".2" fill="#FFF" cx="70" cy="70" r="70"/><defs><circle id="a" cx="70" cy="70" r="70"/></defs><clipPath id="b"><use xlink:href="#a" overflow="visible"/></clipPath><g clip-path="url(#b)"><ellipse fill="#E0E1E0" cx="85.772" cy="150.993" rx="85" ry="3.424"/><path fill="#AB6EAE" d="M102.045 45.073s-.002-12.131 9.14-16.386c9.817-4.568 13.397-6.292 13.929-9.801.339-2.234-.62-4.9-3.58-6.873-4.736-3.157-3.157-4.51-3.157-4.51s1.491-2.431 7.442 3.383c5.246 5.124 4.285 10.374 2.255 13.305-2.03 2.932-6.44 6.456-10.839 8.815-4.71 2.526-8.427 7.849-7.779 12.809.549 4.198-7.411-.742-7.411-.742z"/><path fill="#B681B9" d="M112.01 30.054c10.435-4.855 14.241-6.689 14.807-10.418.415-2.732-2.213-6.308-5.466-7.7 1.226 1.04 2.134 1.635 2.642 2.418.878 1.351 1.366 2.916 1.121 4.533-.532 3.509-4.112 5.233-13.929 9.801-9.142 4.254-9.14 16.386-9.14 16.386s-.256-2.219 0-2.071c.469-3.867 2.72-9.577 9.965-12.949z"/><path fill="#AB6EAE" d="M81.139 67.565s1.128 3.383 1.353 6.54c.226 3.157-.676 7.551 1.353 7.496 2.029-.054 6.54-5.918 5.412-15.39-1.127-9.471-10.824-6.539-8.118 1.354z"/><path fill="#9C65A3" d="M43.027 64.84s14.208 4.962 27.964 4.962c13.756 0 26.836-3.382 29.767-4.962 2.932-1.578-9.471-13.666-9.471-13.666s-17.59-.315-25.934-1.894c-8.344-1.578-24.355 2.029-22.326 15.56z"/><path fill="#AB6EAE" d="M45.605 83.181s-1.225-.074-2.578-2.781c-1.353-2.706-5.505-17.381-6.765-26.61-2.001-14.651 1.127-27.738 1.127-27.738s.69-5.338 2.03-6.314c.531-.387 1.325-.523 2.255 1.352.668 1.347 1.177 3.023 1.177 3.023s7.086-.981 9.127-1.019c3.315-.061 7.737.703 7.737.703s1.281-2.497 1.844-3.357c.381-.582 1.836-2.648 2.44-.702.699 2.248 1.261 5.626 1.261 5.626s.608 9.847 3.249 11.288c4.961 2.707 20.071-1.578 24.581-.676 0 0 16.462-.533 17.139 11.952.847 15.621-4.554 35.686-8.336 34.852-1.971-.435-.91-7.715-4.019-14.84-2.951-6.761-8.613-3.613-15.86-3.173-14.884.902-14.407-.603-15.759 3.457-1.353 4.06-1.699 10.311-2.852 13.583-.339.963-2.109 3.674-3.913 1.165-1.155-1.606-1.353-6.63-1.353-6.63s-.425-4.001-1.779-8.061c-1.353-4.06-2.735-4.701-4.31-4.809-2.878-.196-5.413-1.182-4.736 8.811.475 7.007.238 10.898-1.707 10.898z"/><path fill="#B681B9" d="M94.587 37.862c-7.322-.341-21.178 4.637-26.273 1.858-2.712-1.48-3.337-11.591-3.337-11.591s-.577-3.468-1.294-5.776c-.621-1.997-2.115.123-2.506.721-.578.883-1.894 3.447-1.894 3.447s-4.03-1.822-7.433-1.759l-8.998-.432s7.086-.981 9.127-1.019c3.315-.061 7.737.703 7.737.703s1.281-2.497 1.844-3.356c.381-.583 1.836-2.647 2.44-.702.699 2.248 1.261 5.625 1.261 5.625s.608 9.848 3.249 11.288c4.961 2.706 21.834-4.616 34.822 1.176l-8.745-.183z"/><path fill="#AB6EAE" d="M37.389 26.052s.69-5.338 2.03-6.314c.531-.387 1.768 4.967 1.768 4.967l-3.798 1.347zM61.563 24.013s.154-2.137.717-2.998c.381-.582 1.115-3.006 1.72-1.061.699 2.248 1.261 5.625 1.261 5.625l-3.698-1.566zM102 82V61"/><ellipse transform="rotate(7.161 58.99 31.703)" fill="#1A1A1A" cx="59.013" cy="31.714" rx="1.054" ry="1.23"/><ellipse transform="rotate(-7.946 44.625 31.694)" fill="#1A1A1A" cx="44.634" cy="31.71" rx="1.037" ry="1.23"/><path fill="#9C65A3" d="M39.318 37.806s7.197 1.742 12.366 1.634c5.17-.108 12.696-1.786 12.696-1.786s-4.427 2.97-12.843 2.97c-7.931.001-12.219-2.818-12.219-2.818z"/><path fill="#BE88BC" d="M42.038 38.385s6.055.199 9.812.148c3.756-.052 9.714-.311 9.714-.311s-3.763 1.219-9.879 1.219c-5.764 0-9.647-1.056-9.647-1.056z"/><path fill="#9C65A3" d="M41.122 38.537s.116 3.483.976 3.709c.86.226 1.725-3.076 1.725-3.076l-2.701-.633z"/><path fill="#FFF" d="M41.77 38.537s.116 2.996.976 3.191c.861.194 1.725-2.647 1.725-2.647l-2.701-.544z"/><g><path fill="#9C65A3" d="M61.901 38.537s-.108 2.996-.911 3.191c-.803.194-1.61-2.647-1.61-2.647l2.521-.544z"/><path fill="#FFF" d="M62.549 38.533s-.109 3-.911 3.195c-.803.194-1.61-2.647-1.61-2.647l2.521-.548z"/></g><g><path fill="#EEDA7E" d="M71.072 78.347l47.989 5.612s-2.628 23.957-2.698 34.067c-.056 8.045 2.193 31.984 2.193 31.984s-16.774-.188-24.006.309c-9.715.668-23.983.616-23.983.616s-9.24-26.784-9.576-41.071c-.335-14.287 10.081-31.517 10.081-31.517z"/><path fill="#FFF198" d="M29.446 83.935l41.626-5.623s-2.627 29.586-2.698 39.696c-.056 8.046 2.193 32.927 2.193 32.927s-11.749.367-19.035.001c-6.983-.351-23.764.399-23.764.399s2.349-27.204 2.013-41.49c-.335-14.285-.335-25.91-.335-25.91z"/><path opacity=".6" fill="#FFF" d="M44.807 81.947l9.466-1.229-2.175 16.15-.671 6.548-1.846-2.245-1.174 2.245-1.174-2.619-1.007 2.619-1.419-3.18-1.434 3.18zM99.5 81.947l-8.313-1.229 1.91 16.15.59 6.548 1.62-2.245 1.031 2.245 1.031-2.619.885 2.619 1.246-3.18 1.258 3.18z"/><path fill="#DDC976" d="M51.815 111.533l19.509 39.311-46.622.551 21.896-18.246zM83.258 150.519s1.553-28.272 1.553-34.161c0-5.889-.776-14.277-.776-14.277l26.787-2.187-5.184 50.951-22.38-.326z"/><g><path fill="#EEDA7E" d="M116.998 99.031l32.453 4.04s-1.777 17.247-1.824 24.525c-.038 5.791 1.483 23.025 1.483 23.025s-11.343-.135-16.234.222c-6.57.481-18.059.002-18.059.002s-4.41-18.841-4.636-29.126c-.228-10.285 6.817-22.688 6.817-22.688z"/><path fill="#FFF198" d="M88.847 103.054l28.151-4.049s-1.777 21.3-1.825 28.577c-.038 5.793-.356 23.263-.356 23.263l-15.065-.146-13.364-.135s2.913-18.574 2.686-28.858c-.227-10.285-.227-18.652-.227-18.652z"/><path opacity=".6" fill="#FFF" d="M99.235 101.622l6.402-.884-1.471 11.626-.453 4.713-1.249-1.616-.794 1.616-.794-1.885-.681 1.885-.96-2.289-.969 2.289zM136.223 101.622l-5.622-.884 1.292 11.626.398 4.713 1.096-1.616.698 1.616.697-1.885.598 1.885.843-2.289.851 2.289z"/></g><g><path fill="#EEDA7E" d="M24.984 108.193l26.831 3.34s-1.469 14.258-1.508 20.276c-.031 4.788 1.226 19.036 1.226 19.036s-9.378-.112-13.422.183c-5.432.398-13.409.366-13.409.366s-5.167-15.942-5.354-24.444c-.188-8.503 5.636-18.757 5.636-18.757z"/><path fill="#FFF198" d="M1.71 111.518l23.274-3.347s-1.469 17.609-1.508 23.626c-.031 4.789 1.226 19.597 1.226 19.597s-11.642-.42-15.659.21c-4.331.679-8.271.028-8.271.028s1.314-16.191 1.126-24.693c-.188-8.503-.188-15.421-.188-15.421z"/><path opacity=".6" fill="#FFF" d="M10.298 110.335l5.293-.732-1.216 9.613-.375 3.897-1.032-1.337-.657 1.337-.656-1.559-.563 1.559-.794-1.893-.801 1.893zM40.878 110.335l-4.647-.732 1.067 9.613.33 3.897.906-1.337.576 1.337.577-1.559.494 1.559.697-1.893.704 1.893z"/></g></g><path fill="#4ABA7D" d="M15 147.587l-10.846.734 1.163-11.756 9.683-.544z"/><g fill="none" stroke="#FFF" stroke-miterlimit="10"><path stroke-width="2" d="M6.195 138.524l7.837-.435"/><path d="M6.195 139.831l6.583-.366M6.195 141.137l7.837-.436M6.195 142.443l4.238-.236"/></g></g></svg>