<svg xmlns="http://www.w3.org/2000/svg" xmlns:xlink="http://www.w3.org/1999/xlink" viewBox="0 0 140 140"><circle opacity=".2" fill="#FFF" cx="70" cy="70" r="70"/><defs><circle id="a" cx="70" cy="70" r="70"/></defs><clipPath id="b"><use xlink:href="#a" overflow="visible"/></clipPath><g clip-path="url(#b)"><path fill="#E0E1E0" d="M190.781 143.317c0 2.562-27.146 6.893-71.101 6.893-8.888 0-27.094-4.68-35.075-4.837-31.491-.618-49.822-2.357-49.822-4.401 0-2.563 35.052 5.426 78.444-1.582 28.223-4.558 30.583 3.222 42.574 3.645 23.079.812 34.98-1.404 34.98.282z"/><path fill="#AB6EAE" d="M128.484 94.385c-6.749-3.435-28.718-2.306-35.846-1.258-7.127 1.049-24.945 7.128-30.396 7.128-5.45 0-15.302 2.096-19.076 2.516-3.773.419-9.642 2.307-9.642 2.307-3.145 2.096 1.258 2.934 1.258 2.934l5.241 2.096s-.629 12.787-.629 16.351c0 3.564 2.096 8.385 2.096 8.385l-2.096 1.258s-5.451 3.684-4.612 4.733c.839 1.047 6.078 1.167 6.078 1.167H119.679s12.158-2.112 16.351-8.401c4.193-6.288 3.563-16.937 3.563-16.937s.421-16.41-11.109-22.279z"/><path fill="#BE88BC" d="M41.319 103.053a70.968 70.968 0 0 0-7.795 2.024c-1.172.781 10.917-2.596 27.976-3.327 9.255-.396 18.218-3.809 27.917-5.167 18.438-2.58 32.545-3.847 41.28-.844.072.025-7.28-6.24-35.843-2.889-8.726 1.024-18.276 4.048-26.862 5.733-14.477 2.84-19.742 3.084-26.673 4.47z"/><path fill="#9C65A3" d="M127.231 126.204c0 5.325-6.045 11.489-28.785 10.545-10.67-.443-10.286-8.515-12.436-11.91-2.514-3.971-5.885-3.464-7.485-6.217-4.661-8.018 13.1 1.628 26.975-7.622 17.399-11.599 21.731 1.839 21.731 15.204z"/><path fill="#AB6EAE" d="M117.165 103.189s1.887 12.048 11.529 13.885c9.643 1.837 19.705 1.937 21.172 0 1.468-1.936.838-4.661-.839-5.29-1.677-.629-10.221-5.026-12.339-8.595"/><path fill="#9C65A3" d="M130.492 116.38c-7.456-1.421-11.293-8.38-13.166-12.38h-.161s1.887 12.142 11.529 13.98c9.306 1.772 19.002 1.927 20.985.194-5.225.139-12.289-.48-19.187-1.794z"/><path fill="#AB6EAE" d="M134.983 132.118s1.258 3.773 3.564 3.983c2.306.209 7.547 0 7.547 0s3.563.62 3.563 3.144c0 4.613-12.787 6.079-12.787 6.079s-10.271.209-17.189-3.25"/><path fill="#9C65A3" d="M138.131 143.81a7.87 7.87 0 0 1-.635.041c-1.691.036-3.502-.341-5.17-.573-2.526-.351-5.043-.793-7.522-1.396-1.354-.33-4.48-4.155-5.124-4.036-.025.005 1.161 2.442 1.161 2.442l-41.126-.29-31.213 2.101c-.614.66-13.985-1.595-13.721-1.265.839 1.047 6.078 1.167 6.078 1.167H119.678s.013.047.036.042c6.917 3.44 17.152 3.258 17.153 3.258 1.869-.038 11.242-2.142 11.988-4.197-2.647 1.209-8.514 2.47-10.724 2.706z"/><path fill="#AB6EAE" d="M84.027 136.101s-.323-8.956 1.983-11.261c2.307-2.305 5.371-3.412 8.516-3.622 3.144-.21 3.354 2.306 3.354 2.306s.209 2.935-1.678 3.144c-1.887.209-4.402 1.468-4.402 3.983 0 2.516 1.048 5.869 2.935 7.127"/><path fill="#BE88BC" d="M86.569 125.348c2.265-2.263 4.701-3.9 7.785-4.138a4.829 4.829 0 0 0-.828-.005c-3.144.21-6.209 1.273-8.516 3.578-2.306 2.305-.998 10.233-.998 10.233s.251-7.363 2.557-9.668z"/><path fill="#AB6EAE" d="M185.835 143h-16.13c-7.408 0-14.996-3.575-22.554-10.527-4.627-4.257-11.237-6.19-11.302-6.21a3.213 3.213 0 0 1-2.207-3.965c.482-1.701 2.252-3.896 3.953-3.414.33.094 8.155 3.151 13.891 8.429 6.338 5.829 12.468 9.184 18.219 9.184l16.13.8c1.768 0 3.201.683 3.201 2.451S187.603 143 185.835 143z"/><path fill="#9C65A3" d="M91.349 118.55s-7.324 1.677-10.886 0c-2.744-1.291-3.872-5.065-4.246-6.735 0 0 .282 6.258 3.845 7.936 3.563 1.677 10.886 0 10.886 0s2.574-.937 2.603-2.788c-.735 1.055-2.202 1.587-2.202 1.587z"/><path fill="#AB6EAE" d="M76.059 111.003s.839 5.87 4.403 7.547c3.563 1.677 10.886 0 10.886 0s3.158-1.141 2.529-3.401-4.193-2.47-4.193-2.47-3.689.839-4.675-.839c-.985-1.676-2.033-5.659-2.033-5.659"/><path fill="#BE88BC" d="M83 106.181s.026 3.983 1.011 5.659c.986 1.678 5.679 1.536 5.679 1.536s3.561-.487 4.19 1.773c.008.028.007.053.013.081a2.05 2.05 0 0 0-.015-1.081c-.629-2.26-4.193-2.47-4.193-2.47s-3.888.136-4.663-.839c-1.21-1.522-2.022-5.659-2.022-5.659v1z"/><path fill="#9C65A3" d="M37.749 139.997a23.11 23.11 0 0 0-2.921.179c-.149.288-.182.484-.045.656.839 1.047 6.078 1.167 6.078 1.167h3.088c.161 0 .253-.247.253-.404-.001-.909-2.889-1.598-6.453-1.598z"/><g><ellipse transform="rotate(-82.825 51.781 113.161)" fill="#1A1A1A" cx="51.786" cy="113.166" rx="1.512" ry="1.764"/><ellipse transform="rotate(-97.949 51.785 132.53)" fill="#1A1A1A" cx="51.781" cy="132.53" rx="1.488" ry="1.764"/><path fill="#9C65A3" d="M60.525 140.287s2.5-10.324 2.344-17.74c-.155-7.415-2.562-18.213-2.562-18.213s4.26 6.352 4.26 18.424c.001 11.377-4.042 17.529-4.042 17.529z"/><path fill="#BE88BC" d="M61.355 136.385s.285-8.686.212-14.074c-.074-5.388-.446-13.934-.446-13.934s1.748 5.399 1.748 14.171c.001 8.267-1.514 13.837-1.514 13.837z"/><path fill="#9C65A3" d="M61.573 137.699s4.998-.167 5.321-1.401c.325-1.234-4.412-2.474-4.412-2.474l-.909 3.875z"/><path fill="#FFF" d="M61.573 136.769s4.298-.166 4.578-1.4c.279-1.234-3.797-2.474-3.797-2.474l-.781 3.874z"/><g><path fill="#9C65A3" d="M61.573 107.891s4.298.156 4.578 1.308c.279 1.152-3.797 2.309-3.797 2.309l-.781-3.617z"/><path fill="#FFF" d="M61.567 106.962s4.304.156 4.584 1.308c.279 1.151-3.797 2.308-3.797 2.308l-.787-3.616z"/></g></g><ellipse fill="#AB6EAE" cx="50.449" cy="112.248" rx="2.04" ry="4.144"/><ellipse fill="#AB6EAE" cx="49.621" cy="132.707" rx="2.868" ry="3.59"/><g fill="#F3F3F3"><path d="M101.894 60.512c1.084 3.883-12.202 5.623-14.176 5.78-13.812 1.093-20.708-6.59-23.443-9.149-4.247-3.975-7.961-14.062-2.024-18.12-3.589-5.862-2.758-18.21 1.072-23.8 6.363-9.286 20.456-9.049 28.821-5.464-.634-7.52 3.624-13.291 13.736-17.528 10.29-4.311 24.045-5.687 28.535 4.754 14.099-7.984 40.56-7.225 48.207 6.141 4.621 8.077 6.603 29.189-3.79 35.055 3.401 3.781 2.528 10.878.994 17.61-1.029 4.514-4.734 9.504-9.144 10.777-21.457 6.194-31.378-7.913-32.315-12.71-4.064 7.299-7.216 12.187-18.986 13.528-6.311.718-15.6-.115-17.487-6.874z"/><ellipse transform="rotate(-27.377 46.728 58.542)" cx="46.725" cy="58.536" rx="6.797" ry="5.348"/><ellipse transform="rotate(-55.333 33.11 76.872)" cx="33.109" cy="76.873" rx="2.786" ry="2.074"/></g><g><defs><path id="c" d="M101.894 60.512c1.084 3.883-12.202 5.623-14.176 5.78-13.812 1.093-20.708-6.59-23.443-9.149-4.247-3.975-7.961-14.062-2.024-18.12-3.589-5.862-2.758-18.21 1.072-23.8 6.363-9.286 20.456-9.049 28.821-5.464-.634-7.52 3.624-13.291 13.736-17.528 10.29-4.311 24.045-5.687 28.535 4.754 14.099-7.984 40.56-7.225 48.207 6.141 4.621 8.077 6.603 29.189-3.79 35.055 3.401 3.781 2.528 10.878.994 17.61-1.029 4.514-4.734 9.504-9.144 10.777-21.457 6.194-31.378-7.913-32.315-12.71-4.064 7.299-7.216 12.187-18.986 13.528-6.311.718-15.6-.115-17.487-6.874z"/></defs><clipPath id="d"><use xlink:href="#c" overflow="visible"/></clipPath><g clip-path="url(#d)"><path fill="#EEDA7E" d="M121.422 28.665l26.906 3.35s-1.473 14.298-1.513 20.332c-.032 4.802 1.229 19.09 1.229 19.09s-9.405-.112-13.46.184c-5.447.399-13.446.367-13.446.367s-5.181-15.986-5.369-24.512c-.187-8.528 5.653-18.811 5.653-18.811z"/><path fill="#FFF198" d="M98.083 32l23.338-3.356s-1.473 17.658-1.513 23.692c-.031 4.803 1.23 19.652 1.23 19.652s-11.675-.421-15.702.21c-4.343.681-8.294.029-8.294.029s1.317-16.236 1.129-24.762C98.083 38.937 98.083 32 98.083 32z"/><path opacity=".6" fill="#FFF" d="M106.695 30.813l5.308-.733-1.219 9.639-.376 3.908-1.035-1.34-.659 1.34-.658-1.564-.565 1.564-.796-1.898-.803 1.898zM137.361 30.813l-4.661-.733 1.071 9.639.33 3.908.909-1.34.578 1.34.578-1.564.496 1.564.699-1.898.705 1.898z"/></g><path clip-path="url(#d)" fill="#FFF" d="M112.227-.797l1.165 4.234 4.043 1.164-4.043 1.165-1.165 4.043-1.165-4.043-4.042-1.165 4.042-1.164zM154.36 9.188l1.506 5.477 5.229 1.506-5.229 1.507-1.506 5.229-1.507-5.229-5.229-1.507 5.229-1.506zM87.926 28.773l1.034 3.758 3.588 1.035L88.96 34.6l-1.034 3.588-1.034-3.588-3.589-1.034 3.589-1.035z"/><g clip-path="url(#d)"><path fill="#4ABA7D" d="M120.58 12.898l42.816-27.57 2.603 4.044-42.815 27.57z"/><path fill="#67C188" d="M120.58 12.898l14.188-9.137 2.604 4.044-14.189 9.136z"/><ellipse transform="rotate(-32.765 135.922 5.884)" fill="#67C188" cx="135.912" cy="5.887" rx="1.37" ry="2.404"/><ellipse transform="rotate(-32.775 121.713 15.03)" fill="#5DBE80" cx="121.724" cy="15.023" rx="1.37" ry="2.404"/><ellipse transform="rotate(-32.786 164.792 -12.707)" fill="#4ABA7D" cx="164.786" cy="-12.705" rx="1.37" ry="2.405"/></g></g></g></svg>