<svg xmlns="http://www.w3.org/2000/svg" xmlns:xlink="http://www.w3.org/1999/xlink" viewBox="0 0 140 140"><circle opacity=".2" fill="#FFF" cx="70" cy="70" r="70"/><defs><circle id="a" cx="70" cy="70" r="70"/></defs><clipPath id="b"><use xlink:href="#a" overflow="visible"/></clipPath><g clip-path="url(#b)"><circle fill="#AE77B0" cx="33.667" cy="81.981" r="1.665"/><circle fill="#BC5CA3" cx="56.871" cy="90.623" r="1.665"/><circle opacity=".5" fill="#8CC541" cx="70.965" cy="54.322" r="1.665"/><circle fill="#4ABA7D" cx="42.728" cy="72.769" r="1.665"/><circle fill="#AE77B0" cx="40.209" cy="58.776" r="1.665"/><circle opacity=".5" fill="#73C8EF" cx="68.085" cy="93.72" r="1.665"/><circle fill="#4ABA7D" cx="44.345" cy="30.569" r="1.665"/><g><path fill="#E0E1E0" d="M10.63 126.324s-7.477-1.895-8.34 0c-.83 1.825 1.85 6.42 8.689 7.602 13.158 2.276 12.861 9.034 20.034 8.676 7.172-.359 79.145.721 82.127.246 2.982-.475 25.132 6.081 28.474 7.376 3.342 1.295 10.919-.472 7.535-3.341-3.384-2.869-10.254-4.035-10.254-4.035s-25.542-14.129-42.983-15.305c-17.442-1.177-85.282-1.219-85.282-1.219z"/><path fill="#E0E1E0" d="M13.884 128.614s-4.634-.228-2.841 1.565 19.007 3.094 19.007 3.094-7.352 6.881-3.945 8.528c3.407 1.647 8.004 2.419 13.057 1.046 5.054-1.372 29.575-4.258 36.031-4.779 6.455-.521 31.758-2.129 40.152 0 8.394 2.128 9.743-1.075 9.743-1.075s-31.666-10.226-32.599-10.582c-.933-.356-55.683.536-57.268 0-1.585-.535-21.337 2.203-21.337 2.203z"/><path fill="#AE77B0" d="M144.463 141.509c-2.005-2.006-4.031-5.93-6.666-9.955-3.254-4.97-6.049-10.647-7.95-13.568-4.176-6.419-8.099-10.938-8.099-10.938s-1.242-21.994-2.6-32.636c-1.358-10.641-6.007-34.787-6.007-34.787s-1.561-8.906-3.055-8.906c-1.318 0-4.395 7.363-4.645 7.969-5.799-.648-13.641-1.394-19.018-1.394-9.503 0-14.883 1.21-15.421 1.793-1.793-5.648-2.305-8.234-4.393-7.576-2.294.724-4.573 6.051-6.635 23.983-.842 7.315-2.908 16.264-3.945 24.835-1.505 12.44-1.883 23.58-1.883 23.58s-4.154 4.393-6.186 6.426c-2.033 2.032-4.573 5.589-4.573 5.589s-10.968 3.736-23.52 3.676c-7.088-.034-11.237-2.092-13.27-1.136-3.285 1.546-1.674 8.487 11.954 11.476 13.628 2.989 17.304.777 17.304.777s-1.878 3.698-5.608 7.311c-1.893 1.834-1.242 4.017.767 4.574 6.425 1.783 22.086-6.685 28.481-8.119 6.396-1.434 10.072-1.434 10.072-1.434s4.034 8.787 8.338 8.069c4.303-.717 3.048-7.442 3.048-7.442l9.444.747s.002 5.948 2.092 6.575c2.989.896 8.099-6.515 8.099-6.515s7.083.628 17.035 2.6c4.415.875 8.849 3.796 13.539 5.519 5.884 2.161 11.713 2.967 13.21 1.504.473-.463.993-1.694.091-2.597z"/><ellipse fill="#231F20" cx="100.678" cy="51.579" rx="2.092" ry="2.69"/><ellipse fill="#231F20" cx="75.193" cy="51.34" rx="1.95" ry="2.45"/><path fill="#B783BA" d="M73.43 66.067c2.777.764 5.662 1.188 8.499 1.416 2.815.225 5.654.306 8.482.264.848-.097 1.696-.203 2.545-.311 1.402-.177 2.84-.175 4.232-.382 1.18-.176 2.222-.612 3.373-.692a46.739 46.739 0 0 1 1.986-.464c1.452-.313 8.451-2.704 8.451-2.704s-9.789 3.32-22.711 3.237c-16.75-.107-25.293-7.738-25.293-7.738s.063 1.186.341 2.496c.311.08 3.915 2.912 10.095 4.878z"/><path fill="#A769AB" d="M83.937 130.758c-.882.126-1.828-.091-2.585-.358-.86-.303-8.699-23.124-8.699-23.124l8.299 26.4 9.444.747v.03c1.356-5.233 4.451-17.135 5.801-22.036-2.038 5.428-8.163 18.21-8.163 18.21s-2.214-.139-4.097.131zM96.199 112.417c.327-.871.549-1.554.624-1.963.115-.634-.145.225-.624 1.963zM100.588 134.483a3.488 3.488 0 0 0-.184.26c.119-.165.184-.26.184-.26zM135.196 141.476c-4.125-2.6-7.621-5.289-10.849-6.634-3.228-1.345-9.235-3.139-18.649-4.035 1.435-5.738 2.6-12.193 2.6-12.193s-5.754 13.358-7.71 15.869c0 0 7.083.628 17.035 2.6 4.415.875 8.849 3.796 13.539 5.519 5.785 2.125 11.514 2.939 13.127 1.574-1.955-.184-6.057-.786-9.093-2.7z"/><path fill="#B681B9" d="M95.912 37.759c-3.405-.274-6.764-.465-9.49-.465-9.503 0-14.883 1.21-15.421 1.793l-.031-.094c.069.68.121 1.17.121 1.17s10.041-1.703 18.559-1.434c3.069.096 5.021-.355 6.262-.97z"/><path fill="#A365A9" d="M34.33 127.669c-13.389 1.792-21.996-2.451-25.403-4.543-2.191-1.345-2.75-3.183-2.87-4.325-2.508 2.032-.313 8.331 12.493 11.139 13.628 2.989 17.304.777 17.304.777l7.531-14.794s-.244.083-.696.223c-.878 1.132-3.145 4.148-8.359 11.523z"/><path fill="#AB6DAC" d="M60.989 108.482c-1.742-7.621-2.235-15.507-2.345-20.499.043-.297.068-.606.073-.93.051-3.508.534-10.415.942-15.74.365-3.705.695-6.841.728-7.154l5.054 2.004s-3.676-7.173-3.318-17.274c.352-9.914 5.105-16.369 5.281-16.605-.485-.54-.798-.773-.798-.773s-4.573 6.051-6.635 23.983c-.309 2.691-.785 5.604-1.314 8.637l-.145.831-.092.52-.141.794-.385 2.166-.027.153a.059.059 0 0 0-.002.014l-.14.791-.004.023c-.055.313-.111.627-.165.942l-.001.008c-.075.427-.148.857-.222 1.286l-.003.015-.093.541c-.102.601-.202 1.203-.3 1.806v.003l-.091.569-.001.006c-.07.436-.138.871-.205 1.307l-.001.002-.099.659v.003c-.065.433-.127.867-.188 1.3l-.083.593v.001c-.085.623-.167 1.246-.242 1.866l-.092.776-.022.189-.084.725-.006.048-.084.753-.022.2c-.026.235-.052.469-.076.702l-.006.052-.079.744-.02.19-.07.682-.007.065-.073.73-.018.18-.066.685-.004.042-.069.729-.015.156-.06.66-.005.061-.063.711-.012.137-.058.671a.264.264 0 0 0-.002.029l-.06.709-.009.101-.054.665-.002.028-.054.684-.008.096-.049.631-.002.024c-.482 6.339-.631 10.724-.631 10.724s-4.154 4.393-6.186 6.426c-2.033 2.032-4.573 5.589-4.573 5.589l-.023.008-.015.005-.023.008-.031.01-.026.009-.08.026.071.186 6.075-5.302 2.331.18s2.092 5.02 3.706 8.547c-8.009 2.63-11.058 12.97-11.984 14.465-.926 1.495-3.796 5.439-8.697 6.755-2.666.715-4.464.316-5.551-.197a2.172 2.172 0 0 0 .189.648l.02.04c.018.036.036.073.056.107l.028.047c.019.032.039.064.06.095l.034.049.064.087.041.05c.022.027.045.053.069.079l.046.049.074.074a2.18 2.18 0 0 0 .13.115l.056.046c.027.021.055.042.084.061l.061.043c.029.02.059.038.089.057l.065.039c.031.018.064.036.096.052l.067.036c.034.017.07.032.105.048l.067.03c.04.016.081.032.122.046l.059.023c.062.021.126.041.191.059.602.167 1.286.244 2.035.246.625.001 1.295-.051 2.002-.147.424-.058.862-.131 1.311-.219a32.66 32.66 0 0 0 1.852-.423 52.308 52.308 0 0 0 3.453-1.03c.338-.112.678-.227 1.02-.346 6.316-2.191 13.11-5.371 16.807-6.201a69.73 69.73 0 0 1 4.272-.829c3.732-.605 5.8-.605 5.8-.605s-5.699-11.989-8.575-24.568zm-.747-44.381l.076.03h-.078l.002-.03z"/><path fill="#A365A9" d="M61.609 111.022l2.13 17.813-7.621 1.435-16.955 11.532c.168-.048.336-.094.505-.144a52.308 52.308 0 0 0 2-.628c.338-.112.678-.227 1.02-.346 6.316-2.191 13.11-5.371 16.807-6.201a69.73 69.73 0 0 1 4.272-.829c3.732-.605 5.8-.605 5.8-.605s-4.957-10.421-7.958-22.027z"/><path fill="#B681B9" d="M108.568 117.986c1.614-4.752 4.214-12.642 4.214-12.642s3.407 2.869 4.842 7.62c1.435 4.752 2.152 12.642 2.152 12.642l1.524-10.071s1.165-.508 5.38 3.078c4.214 3.586 8.607 13.18 9.772 15.421 1.166 2.241 5.079 6.512 6.545 6.993.38.125.858.251 1.358.37-1.652-1.709-3.326-4.696-5.35-7.947l-.017-.027-.194-.311-.039-.063-.172-.273-.064-.102-.168-.265-.069-.108-.163-.254-.078-.122-.243-.373c-3.254-4.97-6.049-10.647-7.95-13.568-4.176-6.419-8.099-10.938-8.099-10.938s-1.242-21.994-2.6-32.636c-1.358-10.641-6.007-34.787-6.007-34.787s-1.075-5.353-2.187-8.026c-.284-.543-.577-.881-.868-.881a.364.364 0 0 0-.056.005c.987 4.985 4.205 24.437 4.277 29.523.089 6.366 1.345 5.38.717 13.18-.295 3.667-2.426 21.57-6.814 35.774-4.715 15.264-11.712 27.299-15.978 31.685.036.02.073.039.111.056.048.021.096.042.147.057 2.989.896 8.099-6.515 8.099-6.515l.058.005c3.071-5.844 6.873-13.417 7.92-16.5z"/><path fill="#9A57A2" d="M55.538 118.224c-1.558-1.798-1.486-13.805-1.483-14.315l.179.001c-.001.124-.075 12.449 1.439 14.196l-.135.118zM43.172 116.136l.16.081-7.397 14.547-.16-.081z"/><path fill="#AB6DAC" d="M85.375 69.303c20.145.625 25.624-6.108 25.624-6.108s-12.958 4.761-24.85 4.563c-11.755-.195-21.35-5.018-22.812-6.568-1.462-1.549 4.225 7.56 22.038 8.113z"/><path fill="#FFF" d="M69.078 64.15l-.474.928s.873 5.987 2.487 5.987c2.63 0 2.717-5.19 2.717-5.19a51.07 51.07 0 0 1-4.73-1.725z"/><path fill="#CECCCB" d="M68.285 63.812s.798 4.549 1.703 6.252c.019-.659.098-1.419.326-1.988l.478-1.195 2.962-.196c.049-.487.055-.81.055-.81-1.831-.563-5.524-2.063-5.524-2.063z"/><path fill="#FFF" d="M101.21 66.515s.087 4.55 2.717 4.55c1.614 0 2.487-5.987 2.487-5.987l-.159-.311a51.582 51.582 0 0 1-4.392 1.407l-.653.341z"/><path fill="#CECCCB" d="M101.21 66.515s.001.061.007.166l3.009.199.478 1.195c.228.57.306 1.329.326 1.988.904-1.703 1.384-4.986 1.384-4.986l-.159-.311a51.582 51.582 0 0 1-4.392 1.407l-.653.342z"/><path fill="#9A57A2" d="M87.268 68.107c-15.189 0-23.643-6.382-23.996-6.654 0 0 9.169 5.654 23.996 5.654 14.886 0 23.731-3.912 23.731-3.912-.343.201-8.576 4.912-23.731 4.912z"/></g><g fill="#FEDD10"><path d="M66.9 117.476c-1.805 0-3.268 1.219-3.268 2.724 0 .414 1.464.749 3.268.749 1.805 0 3.268-.335 3.268-.749 0-1.505-1.463-2.724-3.268-2.724z"/><path d="M65.201 120.838c.495.07 1.076.11 1.699.11 1.805 0 3.268-.335 3.268-.749 0-.94-.571-1.768-1.439-2.258a2.851 2.851 0 0 0-.455-.042c-1.545.001-2.823 1.271-3.073 2.939z"/></g><g fill="#3BB34A"><path d="M51.852 121.41c-1.805 0-3.268 1.22-3.268 2.724 0 .414 1.463.749 3.268.749 1.805 0 3.268-.335 3.268-.749.001-1.504-1.463-2.724-3.268-2.724z"/><path d="M50.153 124.773c.496.069 1.076.11 1.699.11 1.805 0 3.268-.335 3.268-.749 0-.94-.571-1.768-1.439-2.258a2.85 2.85 0 0 0-.455-.041c-1.544 0-2.823 1.271-3.073 2.938z"/></g><g fill="#29ABE2"><path d="M35.29 117.476c-1.805 0-3.268 1.219-3.268 2.724 0 .414 1.463.749 3.268.749 1.805 0 3.268-.335 3.268-.749.001-1.505-1.463-2.724-3.268-2.724z"/><path d="M33.591 120.838c.496.07 1.076.11 1.699.11 1.805 0 3.268-.335 3.268-.749 0-.94-.571-1.768-1.439-2.258a2.851 2.851 0 0 0-.455-.042c-1.544.001-2.822 1.271-3.073 2.939z"/></g><path fill="#E0E1E0" d="M90.215 141.95c0 4.131-15.941 7.48-35.605 7.48-19.664 0-37.457-8.516-37.457-12.647s17.792-2.312 37.457-2.312c19.664 0 35.605 3.348 35.605 7.479z"/><g><ellipse fill="#DDC976" cx="49.529" cy="136.783" rx="32.376" ry="8.972"/><ellipse fill="#FFF198" cx="51.852" cy="136.367" rx="30.075" ry="7.274"/><path fill="#DDC976" d="M25.457 122.754l-1.968 8.864c0 5.226 8.559 9.463 23.401 9.463s30.346-4.237 30.346-9.463l-2.222-10.768-49.557 1.904z"/><path fill="#FFF198" d="M75.041 120.301c-.145 2.83-11.352 5.041-25.031 4.939-13.678-.102-24.637-.877-24.491-3.707.145-2.83 9.522-5.578 23.201-5.477 13.679.102 26.466 1.415 26.321 4.245z"/><path fill="#FFF198" d="M25.519 121.533c-1.484 3.051-1.774 5.404-1.288 5.785.702.552 1.364-2.039 3.881-2.075 2.85-.041 3 2.85 5.319 2.561 2.316-.289 2.747-2.275 4.576-2.033 1.59.21 2.464 1.861 4.001 2.033 1.98.222 2.668-1.746 4.752-1.617 1.761.108 1.894 1.551 3.52 1.617 2.272.092 3.164-2.677 5.104-2.426 1.577.204 1.659 2.119 3.168 2.265 1.918.184 2.774-2.817 4.928-2.749 1.653.051 2.005 1.845 3.52 1.779 1.885-.083 2.257-2.483 4.224-2.656 1.825-.161 3.918 2.526 4.759 2.175.478-.2-.202-3.224-.941-6.54l-49.523 1.881z"/><path fill="#FFF" d="M66.899 120.026c-.097 1.899-7.617 3.383-16.796 3.314-9.179-.068-16.532-.588-16.434-2.487.097-1.899 6.39-3.743 15.568-3.675 9.178.068 17.759.948 17.662 2.848z"/><path fill="#4ABA7D" d="M47.86 99.609v19.303c0 .409.879.74 1.964.74 1.084 0 1.964-.331 1.964-.74V99.609H47.86z"/><ellipse fill="#4ABA7D" cx="49.824" cy="99.609" rx="1.964" ry=".517"/><path fill="#FFF198" d="M52.962 96.134c0 1.23-1.405 3.475-3.137 3.475-1.734 0-3.139-2.245-3.139-3.475 0-1.229 2.372-5.381 3.139-5.381 1.964 0 3.137 4.152 3.137 5.381z"/><path fill="#AE77B0" d="M50.119 98.951c0 .363-.156.658-.348.658-.192 0-.348-.294-.348-.658 0-.363.156-1.958.348-1.958.192 0 .348 1.595.348 1.958z"/><path fill="#FFF" d="M50.361 134.482c-14.174 0-25.777-2.444-26.793-5.543a1.412 1.412 0 0 0-.081.441c0 3.304 12.032 5.983 26.873 5.983 14.842 0 26.874-2.679 26.874-5.983 0-.149-.033-.295-.081-.441-1.014 3.099-12.617 5.543-26.792 5.543z"/></g></g></svg>